<svg width="20" height="20" viewBox="0 0 20 20" fill="none" xmlns="http://www.w3.org/2000/svg">
<path d="M4.97729 12.1376L3.61061 18.0556C3.56829 18.2348 3.581 18.4226 3.64707 18.5945C3.71314 18.7664 3.8295 18.9143 3.98096 19.019C4.13242 19.1237 4.31194 19.1803 4.49607 19.1814C4.68019 19.1825 4.86037 19.128 5.01306 19.0252L10.0074 15.6956L15.0017 19.0252C15.158 19.1289 15.3422 19.1823 15.5297 19.1782C15.7172 19.1741 15.899 19.1126 16.0505 19.0021C16.202 18.8917 16.3161 18.7374 16.3774 18.5602C16.4386 18.3829 16.4442 18.1912 16.3932 18.0107L14.7156 12.1404L18.8761 8.39624C19.0094 8.27626 19.1046 8.11984 19.1499 7.94635C19.1952 7.77285 19.1886 7.58988 19.131 7.42007C19.0735 7.25025 18.9674 7.10104 18.8259 6.99088C18.6844 6.88072 18.5137 6.81444 18.335 6.80025L13.1058 6.38383L10.843 1.37481C10.7709 1.21352 10.6536 1.07656 10.5053 0.980459C10.357 0.884355 10.1841 0.833218 10.0074 0.833218C9.83071 0.833218 9.65779 0.884355 9.50952 0.980459C9.36125 1.07656 10.8325 5.80643 9.1718 1.37481L6.90899 6.38383L1.67983 6.79934C1.50414 6.81326 1.33618 6.8775 1.19604 6.98437C1.05591 7.09125 0.949526 7.23623 0.88963 7.40199C0.829735 7.56774 0.818861 7.74724 0.858309 7.91901C0.897756 8.09078 0.985855 8.24755 1.11207 8.37056L4.97729 12.1376ZM7.59416 8.16968C7.75788 8.15679 7.91512 8.10008 8.04939 8.00551C8.18365 7.91094 8.29001 7.782 8.3573 7.63219L10.0074 3.98068L11.6575 7.63219C11.7248 7.782 11.8312 7.91094 11.9654 8.00551C12.0997 8.10008 12.2569 8.15679 12.4206 8.16968L16.0639 8.45861L13.0636 11.159C12.8031 11.3938 12.6995 11.7552 12.7949 12.0927L13.9442 16.1148L10.5174 13.8299C10.367 13.729 10.1899 13.6751 10.0088 13.6751C9.82763 13.6751 9.65058 13.729 9.50017 13.8299L5.91929 16.2175L6.88239 12.0478C6.9177 11.8944 6.91296 11.7345 6.86862 11.5835C6.82429 11.4325 6.74185 11.2955 6.62923 11.1855L3.84267 8.4687L7.59416 8.16968Z" fill="#F3CD03"/>
</svg>
