<svg width="20" height="20" viewBox="0 0 20 20" fill="none" xmlns="http://www.w3.org/2000/svg">
<path d="M19.1308 7.41249C19.0731 7.24267 18.967 7.09346 18.8255 6.98327C18.684 6.87309 18.5134 6.80674 18.3346 6.79244L13.1055 6.37693L10.8426 1.36791C10.7706 1.20658 10.6534 1.06956 10.5051 0.973371C10.3569 0.877187 10.184 0.825954 10.0073 0.825857C9.83064 0.82576 9.65769 0.876803 9.50937 0.972825C9.36104 1.06885 9.24368 1.20574 9.17144 1.367L6.90862 6.37693L1.67947 6.79244C1.50378 6.80635 1.33582 6.87059 1.19568 6.97747C1.05554 7.08435 0.949159 7.22933 0.889264 7.39508C0.829369 7.56084 0.818495 7.74034 0.857942 7.91211C0.89739 8.08388 0.985489 8.24064 1.1117 8.36366L4.97601 12.1307L3.60933 18.0487C3.56783 18.2279 3.58113 18.4153 3.6475 18.5868C3.71388 18.7583 3.83026 18.9059 3.98154 19.0104C4.13283 19.1149 4.31204 19.1715 4.49591 19.1729C4.67979 19.1743 4.85984 19.1205 5.0127 19.0182L10.007 15.6887L15.0014 19.0182C15.1576 19.122 15.3419 19.1754 15.5294 19.1713C15.7169 19.1672 15.8986 19.1057 16.0501 18.9953C16.2017 18.8848 16.3158 18.7305 16.377 18.5533C16.4383 18.376 16.4438 18.1843 16.3928 18.0038L14.7152 12.1335L18.8758 8.38934C19.1482 8.14352 19.2482 7.76012 19.1308 7.41249Z" fill="#F3CD03"/>
</svg>
